# xmcd CD database file
#
# Track frame offsets:
#	150
#	27661
#	54492
#	79141
#	121145
#	150117
#	177513
#	202413
#	226733
#	240470
#	255514
#	278925
#	299848
#	333599
#
# Disc length: 4767 seconds
#
# Revision: 2
# Processed by: cddbd v1.5.1PL2 Copyright (c) Steve Scherf et al.
# Submitted via: CDex 1.70beta1
#
DISCID=ca129d0e
DTITLE=Flash Black By DJ Irai Campos - Flash Black By DJ Irai Campos
DYEAR=2004
DGENRE=Funk
TTITLE0=The World´s Famous Supreme Team - Hey DJ
TTITLE1=The Chi-Lites - Bottom's Up
TTITLE2=Randy Andy - The Motor Song
TTITLE3=T Sky Valley - Catch The Beat
TTITLE4=Brass Costruction - Get Up To Get Down
TTITLE5=The Blow Monkeys - It Doesn't Have To Be This Way
TTITLE6=Uncle Louie  - Full Tilt Boogie
TTITLE7=One Way - Cutie Pie
TTITLE8=The JB´s - Gimme Some More
TTITLE9=Lyn Collins feat. the JB´s - Think (About It)
TTITLE10=Starski - You've Gotta Believe
TTITLE11=Whodini - Friends
TTITLE12=Kurtis Blow -The Breaks
TTITLE13=Jimmy bo Horne - Is It In
EXTD=YEAR: 2004
EXTT0=
EXTT1=
EXTT2=
EXTT3=
EXTT4=
EXTT5=
EXTT6=
EXTT7=
EXTT8=
EXTT9=
EXTT10=
EXTT11=
EXTT12=
EXTT13=
PLAYORDER=
